<svg id="Ebene_1" data-name="Ebene 1" xmlns="http://www.w3.org/2000/svg" viewBox="0 0 160 160"><defs><style>.cls-1{fill:#f7f7f7;}.cls-2{fill:#ededed;}.cls-3{fill:#bebebe;}</style></defs><title>placeholder_image</title><rect class="cls-1" width="160" height="160"/><circle class="cls-2" cx="80" cy="79.8" r="45.8"/><path class="cls-3" d="M70,71.6H67.6V88.4A2.3,2.3,0,0,0,70,90.8H86.8V88.4H70Zm19.2-4.8H74.8a2.3,2.3,0,0,0-2.4,2.4V83.6A2.3,2.3,0,0,0,74.8,86H89.2a2.3,2.3,0,0,0,2.4-2.4V69.2A2.3,2.3,0,0,0,89.2,66.8ZM88,77.6H76V75.2H88Zm-4.8,4.8H76V80h7.2ZM88,72.8H76V70.4H88Z"/></svg>