<?xml version="1.0" encoding="utf-8"?>
<!-- Generator: Adobe Illustrator 21.1.0, SVG Export Plug-In . SVG Version: 6.00 Build 0)  -->
<svg version="1.1" id="Ebene_1" xmlns="http://www.w3.org/2000/svg" xmlns:xlink="http://www.w3.org/1999/xlink" x="0px" y="0px"
	 viewBox="0 0 23.8 22" style="enable-background:new 0 0 23.8 22;" xml:space="preserve">
<style type="text/css">
	.st0{fill:#C1201F;}
</style>
<path class="st0" d="M22,11.1C22,11.1,22,11.1,22,11.1L14,21c-0.6,0.6-1.3,1-2.1,1c-0.8,0-1.5-0.3-2.1-0.9l-8-9.9c0,0,0,0,0,0
	c-2.4-2.6-2.4-6.6,0.1-9.2C3.1,0.7,4.7,0,6.4,0h0c1.7,0,3.3,0.7,4.5,1.9c0,0,0,0,0,0l0.9,0.8l1-0.8c0,0,0,0,0,0
	C14.1,0.7,15.7,0,17.3,0l0,0c1.7,0,3.3,0.7,4.6,1.9C24.4,4.4,24.4,8.5,22,11.1z M20.5,3.3c-0.8-0.9-2-1.3-3.1-1.3l0,0
	c-1.2,0-2.3,0.5-3.2,1.3c0,0,0,0,0,0c0,0,0,0,0,0l-1.6,1.4c0,0-0.1,0-0.1,0.1c-0.1,0-0.1,0.1-0.2,0.1c0,0,0,0-0.1,0
	C12.1,5,12,5,11.9,5c-0.1,0-0.3,0-0.4-0.1c0,0,0,0,0,0c-0.1,0-0.2-0.1-0.2-0.1L9.7,3.4c0,0,0,0,0,0c0,0,0,0,0,0C8.8,2.5,7.6,2,6.4,2
	h0C5.3,2,4.1,2.5,3.3,3.3C1.6,5.1,1.6,8,3.3,9.8c0,0,0,0,0,0c0,0,0,0,0,0l8,9.9c0.3,0.3,0.8,0.3,1.1,0l8-9.9c0,0,0,0,0,0
	c0,0,0,0,0,0C22.2,8,22.2,5.1,20.5,3.3z"/>
</svg>
